<svg width="54" height="86" viewBox="0 0 54 86" fill="none" xmlns="http://www.w3.org/2000/svg">
<path d="M25 57L37 42.5L25 28" stroke="white" stroke-width="3" stroke-linecap="round" stroke-linejoin="round"/>
<path d="M36.6367 42.2532H2" stroke="white" stroke-width="3" stroke-linecap="round" stroke-linejoin="round"/>
<path d="M6 31.4569V13.8763C5.99998 10.7843 6.80404 7.81812 8.23615 5.6273C9.66826 3.43649 11.6117 2.19949 13.6411 2.18712L44.144 2.00009C45.1518 1.99394 46.1506 2.2904 47.0831 2.87252C48.0157 3.45465 48.8639 4.31104 49.5792 5.39276C50.2945 6.47449 50.8629 7.76035 51.2519 9.17688C51.6409 10.5934 51.843 12.1129 51.8465 13.6484L51.9999 72.264C52.004 73.7991 51.8095 75.3203 51.4277 76.7409C51.0459 78.1614 50.4842 79.4535 49.7746 80.5433C49.0651 81.6331 48.2216 82.4992 47.2924 83.0923C46.3631 83.6855 45.3663 83.9939 44.3589 84H13.6718C11.6371 84 9.68575 82.7685 8.24701 80.5763C6.80827 78.3841 6 75.411 6 72.3108V54.8354" stroke="white" stroke-width="3" stroke-linecap="round" stroke-linejoin="round"/>
</svg>
