<svg width="30" height="30" viewBox="0 0 30 30" fill="none" xmlns="http://www.w3.org/2000/svg">
<path d="M0 30C0 26.969 1.14935 24.0621 3.1952 21.9188C5.24105 19.7755 8.01582 18.5714 10.9091 18.5714C13.8024 18.5714 16.5771 19.7755 18.623 21.9188C20.6688 24.0621 21.8182 26.969 21.8182 30H0ZM10.9091 17.1429C6.38864 17.1429 2.72727 13.3071 2.72727 8.57143C2.72727 3.83571 6.38864 0 10.9091 0C15.4295 0 19.0909 3.83571 19.0909 8.57143C19.0909 13.3071 15.4295 17.1429 10.9091 17.1429ZM24.5455 22.8571H30V25.7143H24.5455V22.8571ZM20.4545 15.7143H30V18.5714H20.4545V15.7143ZM23.1818 8.57143H30V11.4286H23.1818V8.57143Z" fill="#F2F2F2"/>
</svg>
