<svg width="31" height="30" viewBox="0 0 31 30" fill="none" xmlns="http://www.w3.org/2000/svg">
<path d="M0.679771 10.3824C1.3629 8.3693 2.48512 6.51714 3.97252 4.94789C4.09546 4.81823 4.256 4.72636 4.43376 4.68395C4.61151 4.64153 4.79847 4.65049 4.97088 4.70969L8.51692 5.9201C8.76936 6.00613 9.03838 6.03874 9.30534 6.01568C9.57231 5.99261 9.83082 5.91442 10.063 5.78652C10.2951 5.65863 10.4954 5.48408 10.6498 5.27499C10.8042 5.06589 10.9092 4.82724 10.9574 4.57559L11.6322 1.0361C11.6649 0.863803 11.7505 0.704681 11.8783 0.578995C12.006 0.453309 12.1701 0.366745 12.3495 0.330323C14.5161 -0.110108 16.7555 -0.110108 18.9221 0.330323C19.1015 0.366745 19.2656 0.453309 19.3933 0.578995C19.5211 0.704681 19.6067 0.863803 19.6394 1.0361L20.3161 4.57559C20.3643 4.82724 20.4692 5.06589 20.6236 5.27499C20.7781 5.48408 20.9783 5.65863 21.2105 5.78652C21.4426 5.91442 21.7011 5.99261 21.9681 6.01568C22.2351 6.03874 22.5041 6.00613 22.7565 5.9201L26.3044 4.70969C26.4767 4.65109 26.6634 4.64261 26.8408 4.68532C27.0182 4.72804 27.1783 4.82003 27.3009 4.94965C28.7874 6.51855 29.909 8.37008 30.5918 10.3824C30.6482 10.5486 30.6516 10.7271 30.6015 10.8951C30.5515 11.0632 30.4503 11.2133 30.3108 11.3264L27.4359 13.6554C27.2317 13.8211 27.0676 14.0271 26.9551 14.2593C26.8426 14.4914 26.7843 14.7442 26.7843 15C26.7843 15.2557 26.8426 15.5085 26.9551 15.7406C27.0676 15.9728 27.2317 16.1788 27.4359 16.3445L30.3108 18.6735C30.4503 18.7867 30.5515 18.9368 30.6015 19.1048C30.6516 19.2729 30.6482 19.4513 30.5918 19.6175C29.9092 21.6305 28.7877 23.4826 27.3009 25.052C27.178 25.1817 27.0174 25.2736 26.8397 25.316C26.6619 25.3584 26.475 25.3494 26.3026 25.2902L22.7565 24.0798C22.5041 23.9938 22.2351 23.9612 21.9681 23.9842C21.7011 24.0073 21.4426 24.0855 21.2105 24.2134C20.9783 24.3413 20.7781 24.5158 20.6236 24.7249C20.4692 24.934 20.3643 25.1727 20.3161 25.4243L19.6376 28.9656C19.6047 29.1373 19.5191 29.2959 19.3918 29.4212C19.2644 29.5465 19.1009 29.633 18.9221 29.6696C16.7555 30.1101 14.5161 30.1101 12.3495 29.6696C12.1701 29.6332 12.006 29.5466 11.8783 29.4209C11.7505 29.2952 11.6649 29.1361 11.6322 28.9638L10.9574 25.4243C10.9092 25.1727 10.8042 24.934 10.6498 24.7249C10.4954 24.5158 10.2951 24.3413 10.063 24.2134C9.83082 24.0855 9.57231 24.0073 9.30534 23.9842C9.03838 23.9612 8.76936 23.9938 8.51692 24.0798L4.96903 25.2902C4.79669 25.3488 4.61 25.3573 4.43261 25.3146C4.25522 25.2719 4.0951 25.1799 3.97252 25.0503C2.48596 23.4814 1.36439 21.6299 0.68162 19.6175C0.625261 19.4513 0.621882 19.2729 0.671911 19.1048C0.72194 18.9368 0.823126 18.7867 0.96264 18.6735L3.83755 16.3445C4.04178 16.1788 4.20583 15.9728 4.31834 15.7406C4.43085 15.5085 4.48912 15.2557 4.48912 15C4.48912 14.7442 4.43085 14.4914 4.31834 14.2593C4.20583 14.0271 4.04178 13.8211 3.83755 13.6554L0.96264 11.3264C0.823126 11.2133 0.72194 11.0632 0.671911 10.8951C0.621882 10.7271 0.625261 10.5486 0.68162 10.3824H0.679771ZM11.9391 15C11.9391 15.9359 12.3287 16.8335 13.0221 17.4953C13.7155 18.1571 14.656 18.5289 15.6367 18.5289C16.6174 18.5289 17.5579 18.1571 18.2513 17.4953C18.9448 16.8335 19.3344 15.9359 19.3344 15C19.3344 14.064 18.9448 13.1664 18.2513 12.5047C17.5579 11.8429 16.6174 11.4711 15.6367 11.4711C14.656 11.4711 13.7155 11.8429 13.0221 12.5047C12.3287 13.1664 11.9391 14.064 11.9391 15Z" fill="#F2F2F2"/>
</svg>
